<?xml version="1.0" encoding="utf-8"?>
<!-- Generator: Adobe Illustrator 17.0.0, SVG Export Plug-In . SVG Version: 6.00 Build 0)  -->
<!DOCTYPE svg PUBLIC "-//W3C//DTD SVG 1.1//EN" "http://www.w3.org/Graphics/SVG/1.1/DTD/svg11.dtd">
<svg version="1.1" id="Layer_1" xmlns="http://www.w3.org/2000/svg" xmlns:xlink="http://www.w3.org/1999/xlink" x="0px" y="0px"
	 width="1920px" height="1123px" viewBox="0 0 1920 1123" enable-background="new 0 0 1920 1123" xml:space="preserve">
<g id="Bg" transform="translate(2)">
	
		<linearGradient id="Gradient_Layer_1_" gradientUnits="userSpaceOnUse" x1="-4441.2939" y1="2721.228" x2="-4441.2939" y2="2722.228" gradientTransform="matrix(1920 0 0 -1123 8528242 3057062)">
		<stop  offset="0" style="stop-color:#EF0003"/>
		<stop  offset="0.1687" style="stop-color:#EB0003"/>
		<stop  offset="0.3354" style="stop-color:#DF0003"/>
		<stop  offset="0.5015" style="stop-color:#CB0003"/>
		<stop  offset="0.6671" style="stop-color:#AF0002"/>
		<stop  offset="0.8326" style="stop-color:#8C0102"/>
		<stop  offset="0.9958" style="stop-color:#600101"/>
		<stop  offset="1" style="stop-color:#5F0101"/>
	</linearGradient>
	<rect id="Gradient_Layer" x="-2" fill="url(#Gradient_Layer_1_)" width="1920" height="1123"/>
	<g id="Stars" opacity="0.41">
		
			<linearGradient id="Path_407_1_" gradientUnits="userSpaceOnUse" x1="-4450.5688" y1="2725.3923" x2="-4449.5791" y2="2726.3792" gradientTransform="matrix(62.179 0 0 -58.4492 278327.1563 159728.3281)">
			<stop  offset="0" style="stop-color:#FFFFFF"/>
			<stop  offset="0.468" style="stop-color:#FFFFFF;stop-opacity:0.502"/>
			<stop  offset="1" style="stop-color:#FFFFFF;stop-opacity:0"/>
		</linearGradient>
		<path id="Path_407" fill="url(#Path_407_1_)" d="M1656.973,373.584c1.4,1.495-51.28,53.153-54.028,55.729
			c-2.748,2.576-6.112,3.452-7.513,1.958c-1.401-1.494-0.309-4.8,2.439-7.371C1600.619,421.329,1655.572,372.089,1656.973,373.584z"
			/>
		
			<linearGradient id="Path_408_1_" gradientUnits="userSpaceOnUse" x1="-4448.6187" y1="2724.4514" x2="-4447.6289" y2="2725.4382" gradientTransform="matrix(79.1909 0 0 -74.4411 353863.5 203003.2344)">
			<stop  offset="0" style="stop-color:#FFFFFF"/>
			<stop  offset="0.468" style="stop-color:#FFFFFF;stop-opacity:0.502"/>
			<stop  offset="1" style="stop-color:#FFFFFF;stop-opacity:0"/>
		</linearGradient>
		<path id="Path_408" fill="url(#Path_408_1_)" d="M1651.965,118.593c1.784,1.9-65.308,67.693-68.809,70.975s-7.784,4.4-9.569,2.493
			s-0.394-6.107,3.107-9.388S1650.18,116.689,1651.965,118.593z"/>
		
			<linearGradient id="Path_409_1_" gradientUnits="userSpaceOnUse" x1="-4448.6187" y1="2724.4514" x2="-4447.6289" y2="2725.4382" gradientTransform="matrix(79.1909 0 0 -74.4411 352674.5 203491.2344)">
			<stop  offset="0" style="stop-color:#FFFFFF"/>
			<stop  offset="0.468" style="stop-color:#FFFFFF;stop-opacity:0.502"/>
			<stop  offset="1" style="stop-color:#FFFFFF;stop-opacity:0"/>
		</linearGradient>
		<path id="Path_409" fill="url(#Path_409_1_)" d="M462.965,606.593c1.784,1.9-65.308,67.693-68.809,70.975s-7.784,4.4-9.569,2.493
			s-0.394-6.107,3.107-9.388S461.18,604.689,462.965,606.593z"/>
		
			<linearGradient id="Path_410_1_" gradientUnits="userSpaceOnUse" x1="-4455.7485" y1="2727.8914" x2="-4454.7588" y2="2728.8782" gradientTransform="matrix(39.5908 0 0 -37.2157 176650.6719 101960.0313)">
			<stop  offset="0" style="stop-color:#FFFFFF"/>
			<stop  offset="0.468" style="stop-color:#FFFFFF;stop-opacity:0.502"/>
			<stop  offset="1" style="stop-color:#FFFFFF;stop-opacity:0"/>
		</linearGradient>
		<path id="Path_410" fill="url(#Path_410_1_)" d="M283.382,402.797c0.892,0.952-32.65,33.842-34.4,35.483s-3.892,2.2-4.784,1.246
			s-0.2-3.053,1.553-4.693S282.49,401.849,283.382,402.797z"/>
		
			<linearGradient id="Path_411_1_" gradientUnits="userSpaceOnUse" x1="-4453.4688" y1="2726.7913" x2="-4452.479" y2="2727.7781" gradientTransform="matrix(47.126 0 0 -44.3002 210349.6094 121011.7109)">
			<stop  offset="0" style="stop-color:#FFFFFF"/>
			<stop  offset="0.468" style="stop-color:#FFFFFF;stop-opacity:0.502"/>
			<stop  offset="1" style="stop-color:#FFFFFF;stop-opacity:0"/>
		</linearGradient>
		<path id="Path_411" fill="url(#Path_411_1_)" d="M521.915,170.715c1.062,1.133-38.866,40.285-40.949,42.238
			s-4.633,2.617-5.694,1.484s-0.234-3.634,1.849-5.587S520.854,169.582,521.915,170.715z"/>
		
			<linearGradient id="Path_412_1_" gradientUnits="userSpaceOnUse" x1="-4453.4688" y1="2726.7913" x2="-4452.479" y2="2727.7781" gradientTransform="matrix(47.126 0 0 -44.3002 211380.6094 121628.7109)">
			<stop  offset="0" style="stop-color:#FFFFFF"/>
			<stop  offset="0.468" style="stop-color:#FFFFFF;stop-opacity:0.502"/>
			<stop  offset="1" style="stop-color:#FFFFFF;stop-opacity:0"/>
		</linearGradient>
		<path id="Path_412" fill="url(#Path_412_1_)" d="M1552.915,787.715c1.062,1.133-38.866,40.285-40.949,42.238
			c-2.083,1.953-4.633,2.617-5.694,1.484c-1.061-1.133-0.234-3.634,1.849-5.587S1551.854,786.582,1552.915,787.715z"/>
		
			<linearGradient id="Path_413_1_" gradientUnits="userSpaceOnUse" x1="-4448.6187" y1="2724.4514" x2="-4447.6289" y2="2725.4382" gradientTransform="matrix(79.1909 0 0 -74.4411 352526.5 203670.2344)">
			<stop  offset="0" style="stop-color:#FFFFFF"/>
			<stop  offset="0.468" style="stop-color:#FFFFFF;stop-opacity:0.502"/>
			<stop  offset="1" style="stop-color:#FFFFFF;stop-opacity:0"/>
		</linearGradient>
		<path id="Path_413" fill="url(#Path_413_1_)" d="M314.965,785.593c1.784,1.9-65.308,67.693-68.809,70.975s-7.784,4.4-9.569,2.493
			s-0.394-6.107,3.107-9.388S313.18,783.689,314.965,785.593z"/>
	</g>
	<g id="Cloud" transform="translate(720.827 98.819)">
		<path id="Path_1" opacity="0.15" fill="#C9656C" enable-background="new    " d="M977.11,488.399c-2.039,1.19,147.091,0,147.091,0
			s-28.916-6.3-44.941-8.586c0,0-8.216-12.591-38.264-12.591s-36.413,14.309-36.413,14.309
			C994.963,481.208,985.446,483.587,977.11,488.399z"/>
		<path id="Path_3" opacity="0.15" fill="#C9656C" enable-background="new    " d="M859.747,96.738h269.99
			c0,0-3.675-10.482-37.653-13.976c0,0-9.182-16.307-46.835-19.8c-37.653-3.493-56.936,16.889-56.936,16.889
			s-16.529-17.292-51.425-0.2C936.888,79.646,889.133,78.1,859.747,96.738z"/>
		<path id="Path_5" opacity="0.15" fill="#C9656C" enable-background="new    " d="M759.747,300.192h185.891
			c0,0-2.529-5.69-25.924-7.589c0,0-6.322-8.851-32.246-10.748s-39.2,9.167-39.2,9.167s-11.38-9.387-35.407-0.109
			C812.859,290.917,779.981,290.077,759.747,300.192z"/>
		<path id="Path_2" opacity="0.15" fill="#B11C27" enable-background="new    " d="M-614.886,488.517h264.493
			c0,0-3.6-8.1-36.884-10.8c0,0-9-12.594-45.882-15.292c-36.882-2.698-55.778,13.043-55.778,13.043s-16.194-13.354-50.38-0.154
			C-539.316,475.318-586.098,474.123-614.886,488.517z"/>
		<path id="Path_4" opacity="0.15" fill="#B11C27" enable-background="new    " d="M-671.827,208.173h380.74
			c0,0,1.32-10.757-15.837-13.59c0,0,1.979-15.287-24.415-19.251c0,0,3.96-29.442-38.932-27.178
			c-42.892,2.264-42.229,36.238-42.229,36.238s-27.265-22.762-50.986-0.263c0,0-24.348-18.537-51.191-3
			c0,0-49.318-31.867-84.9,1.607c0,0-30.588-7.5-41.826,13.392C-641.406,196.127-651.685,191.293-671.827,208.173z"/>
	</g>
</g>
</svg>
